# xmcd CD database file
#
# Track frame offsets:
#	150
#	24717
#	63999
#	71369
#	100109
#	129021
#	156315
#	193244
#	228871
#	259788
#	288741
#
# Disc length: 3949 seconds
#
# Revision: 0
# Processed by: cddbd v1.5.2PL0 Copyright (c) Steve Scherf et al.
# Submitted via: CDex 1.51
#
DISCID=970f6b0b
DTITLE=Brown vs Brown - Intrusion To The Alleged Brown Sound
DYEAR=2006
DGENRE=Jazz
TTITLE0=Illusive Glance
TTITLE1=Omnium
TTITLE2=Hillyrock
TTITLE3=Clock of the Years
TTITLE4=FFF
TTITLE5=Have a Bun
TTITLE6=Bloody Youthful
TTITLE7=Dike Burst
TTITLE8=Beasts with a man´s face
TTITLE9=Bronson´s Gardening
TTITLE10=surFFF
EXTD=YEAR: 2006
EXTT0=
EXTT1=
EXTT2=
EXTT3=
EXTT4=
EXTT5=
EXTT6=
EXTT7=
EXTT8=
EXTT9=
EXTT10=
PLAYORDER=
